<svg width="1024" height="1024" viewBox="0 0 1024 1024" fill="none" xmlns="http://www.w3.org/2000/svg">
  <defs>
    <clipPath id="icon-clip">
      <rect x="56" y="56" width="912" height="912" rx="184" ry="184"/>
    </clipPath>
  </defs>

  <rect x="56" y="56" width="912" height="912" rx="184" ry="184" fill="#FFFFFF"/>
  <g clip-path="url(#icon-clip)">
    <rect x="56" y="56" width="912" height="452" fill="#FBCD3E"/>
    <rect x="56" y="502" width="912" height="466" fill="#FFFFFF"/>
    <rect x="56" y="486" width="912" height="18" fill="#FFECAA"/>
  </g>
  <rect x="56.5" y="56.5" width="911" height="911" rx="183.5" ry="183.5" stroke="#F5E6A9"/>

  <circle cx="290" cy="646" r="112" fill="#FBCD3E"/>
  <circle cx="290" cy="646" r="96" stroke="#FFE28A" stroke-width="12"/>
  <path d="M228 646L274 692L358 590" stroke="white" stroke-width="34" stroke-linecap="round" stroke-linejoin="round"/>

  <rect x="488" y="572" width="308" height="44" rx="22" fill="#F4C43A"/>
  <rect x="488" y="694" width="308" height="44" rx="22" fill="#F4C43A"/>
  <rect x="500" y="580" width="284" height="10" rx="5" fill="#FFE28A"/>
  <rect x="500" y="702" width="284" height="10" rx="5" fill="#FFE28A"/>
</svg>
